<?xml version="1.0" standalone="no"?><!DOCTYPE svg PUBLIC "-//W3C//DTD SVG 1.1//EN" "http://www.w3.org/Graphics/SVG/1.1/DTD/svg11.dtd"><svg t="1718784829638" class="icon" viewBox="0 0 1024 1024" version="1.1" xmlns="http://www.w3.org/2000/svg" p-id="6120" xmlns:xlink="http://www.w3.org/1999/xlink" width="16" height="16"><path d="M512 512.002m-511.998 0a511.998 511.998 0 1 0 1023.996 0 511.998 511.998 0 1 0-1023.996 0Z" fill="#323232" p-id="6121"></path><path d="M919.00441 512.006c0 224.777122-182.221288 406.99841-407.00441 406.99841s-407.00441-182.221288-407.00441-406.99841c0-224.789122 182.221288-407.01441 407.00441-407.01441s407.00441 182.225288 407.00441 407.01441z" fill="#494A4A" p-id="6122"></path><path d="M130.119492 561.251808C154.297397 750.623068 316.052765 897.004496 512 897.004496s357.702603-146.381428 381.880508-335.752688H130.119492z" fill="#2A81C2" p-id="6123"></path><path d="M405.482416 712.567217h-195.365237a79.999688 79.999688 0 0 0-24.443904 3.815985c63.667751 101.445604 173.325323 171.089332 299.744829 179.709298 0.026-0.807997 0.062-1.617994 0.062-2.433991v-101.093605c0.002-44.181827-35.81386-79.997688-79.997688-79.997687z" fill="#1B9D7E" p-id="6124"></path><path d="M165.593353 343.814657l319.888751-31.371877v-13.687947l-274.388929-26.909895a385.182495 385.182495 0 0 0-45.499822 71.969719zM558.249819 422.208351h177.965305v99.209612h-177.965305z" fill="#E8E9EC" p-id="6125"></path><path d="M558.249819 422.208351h177.965305v55.785782h-177.965305z" fill="#CDCCCA" p-id="6126"></path><path d="M554.899832 413.838383h184.665279v54.007789H554.899832zM524.941949 287.350878l-27.209893-30.547881-27.207894 30.547881v73.99971h54.417787z" fill="#E65439" p-id="6127"></path><path d="M470.524162 320.560748h54.417787v40.78984h-54.417787z" fill="#BE3D27" p-id="6128"></path><path d="M529.231933 327.850719h-62.999754l-21.999914 281.998899h106.999582z" fill="#E8E9EC" p-id="6129"></path><path d="M529.231933 327.850719h-19.135926l8.635967 281.998899h32.499873z" fill="#CDCCCA" p-id="6130"></path><path d="M454.118226 327.850719h87.229659v7.003973h-87.229659z" fill="#E65439" p-id="6131"></path><path d="M463.620189 361.350588h68.225733l-1.209995-15.495939h-65.807743zM461.330198 390.682474h72.803716l-1.207996-15.49594H462.540193zM459.042207 420.014359h77.379698l-1.209996-15.495939h-74.959707zM456.754216 449.346245h81.95568l-1.207996-15.49994h-79.539689zM454.466225 478.67813h86.531662l-1.205996-15.499939h-84.117671zM452.178234 508.010016h91.109644l-1.209995-15.49994h-88.691654z" fill="#CDCCCA" p-id="6132" data-spm-anchor-id="a313x.search_index.0.i8.5acb3a818M2wnL" class="selected"></path><path d="M449.888243 537.341901h95.687626l-1.207995-15.499939h-93.269636z" fill="#DDAE2A" p-id="6133"></path><path d="M497.732056 305.600806m-12.249952 0a12.249952 12.249952 0 1 0 24.499904 0 12.249952 12.249952 0 1 0-24.499904 0Z" fill="#EDC849" p-id="6134"></path><path d="M497.732056 305.600806m-8.941965 0a8.941965 8.941965 0 1 0 17.88393 0 8.941965 8.941965 0 1 0-17.88393 0Z" fill="#DDAE2A" p-id="6135"></path><path d="M470.524162 287.350878v1.331994h54.417787v-1.331994l-27.209893-30.547881z" fill="#BE3D27" p-id="6136"></path><path d="M465.232183 285.182886h64.999746v7.003973h-64.999746z" fill="#BE3D27" p-id="6137"></path><path d="M586.31771 205.729196m-4.997981 0a4.99798 4.99798 0 1 0 9.995961 0 4.99798 4.99798 0 1 0-9.995961 0Z" fill="#CDCCCA" p-id="6138"></path><path d="M572.985762 297.440838m-4.997981 0a4.99798 4.99798 0 1 0 9.995961 0 4.99798 4.99798 0 1 0-9.995961 0Z" fill="#CDCCCA" p-id="6139"></path><path d="M436.984293 352.064625m-4.99798 0a4.99798 4.99798 0 1 0 9.995961 0 4.99798 4.99798 0 1 0-9.995961 0Z" fill="#CDCCCA" p-id="6140"></path><path d="M313.652775 352.064625m-4.997981 0a4.99798 4.99798 0 1 0 9.995961 0 4.99798 4.99798 0 1 0-9.995961 0Z" fill="#CDCCCA" p-id="6141"></path><path d="M217.65315 445.728259m-4.997981 0a4.99798 4.99798 0 1 0 9.995961 0 4.99798 4.99798 0 1 0-9.995961 0Z" fill="#CDCCCA" p-id="6142"></path><path d="M303.656814 501.474041m-4.997981 0a4.99798 4.99798 0 1 0 9.995961 0 4.99798 4.99798 0 1 0-9.995961 0Z" fill="#CDCCCA" p-id="6143"></path><path d="M396.984449 426.224335m-4.99798 0a4.99798 4.99798 0 1 0 9.995961 0 4.99798 4.99798 0 1 0-9.995961 0Z" fill="#CDCCCA" p-id="6144"></path><path d="M770.316991 426.224335m-4.997981 0a4.99798 4.99798 0 1 0 9.995961 0 4.99798 4.99798 0 1 0-9.995961 0Z" fill="#CDCCCA" p-id="6145"></path><path d="M792.316905 347.064644m-4.99798 0a4.99798 4.99798 0 1 0 9.99596 0 4.99798 4.99798 0 1 0-9.99596 0Z" fill="#CDCCCA" p-id="6146"></path><path d="M414.984379 210.725177m-4.997981 0a4.99798 4.99798 0 1 0 9.995961 0 4.99798 4.99798 0 1 0-9.995961 0Z" fill="#CDCCCA" p-id="6147"></path><path d="M671.651376 304.72881m-4.99798 0a4.99798 4.99798 0 1 0 9.995961 0 4.99798 4.99798 0 1 0-9.995961 0Z" fill="#CDCCCA" p-id="6148"></path><path d="M253.233011 626.469553v170.609333c68.361733 62.089757 159.145378 99.92561 258.766989 99.92561 212.631169 0 385.004496-172.371327 385.004496-384.998496 0-1.851993-0.042-3.691986-0.07-5.535978H373.232542c-66.273741 0-119.999531 53.72779-119.999531 119.999531z" fill="#3AB49C" p-id="6149"></path><path d="M561.319807 521.841962h-64.087749c-11.043957 0-19.999922 8.957965-19.999922 19.999921v77.881696c-20.049922 0.905996-37.523853 11.655954-47.733814 27.527893h-14.513943v-97.659619c0-11.045957-8.953965-19.999922-19.999922-19.999922h-9.751962c-11.043957 0-19.999922 8.953965-19.999922 19.999922v11.729954a15.503939 15.503939 0 0 0-10.999957 14.831942v35.053863a15.503939 15.503939 0 0 0 10.999957 14.831943v24.741903c-23.14191 8.323967-39.693845 30.459881-39.693845 56.467779v18.835927h-15.30594c-11.043957 0-19.999922 8.957965-19.999922 19.999922v80.639685a384.718497 384.718497 0 0 0 35.305862 22.113913v0.058c0.034 0.016 0.066 0.036 0.1 0.05 0.811997 0.449998 1.641994 0.871997 2.45799 1.315995 1.585994 0.863997 3.179988 1.709993 4.779982 2.55399 1.873993 0.987996 3.753985 1.963992 5.645978 2.921988a437.938289 437.938289 0 0 0 10.641958 5.17598 408.822403 408.822403 0 0 0 10.851958 4.869981c1.685993 0.725997 3.377987 1.433994 5.07598 2.131992 1.989992 0.823997 3.983984 1.631994 5.989976 2.42599 0.717997 0.281999 1.423994 0.585998 2.143992 0.867997h0.004v-0.042a388.982481 388.982481 0 0 0 18.753927 6.691974v-145.295433c0-11.045957 8.955965-19.999922 19.999922-19.999921h37.903852v-19.315925c0-11.045957 8.955965-19.999922 19.999921-19.999922h75.687705v-88.999652c0-11.045957 8.953965-19.999922 19.999922-19.999922h57.655775c11.047957 0 19.999922 8.953965 19.999921 19.999922v88.999652h144.087438v-66.999738c0-11.045957 8.955965-19.999922 19.999921-19.999922h82.497678a386.078492 386.078492 0 0 0 7.063973-64.409748H561.319807z" fill="#1B9D7E" p-id="6150"></path><path d="M512 897.004496c149.249417 0 278.654912-84.925668 342.546662-209.085183h-104.98359c-11.043957 0-19.999922 8.953965-19.999922 19.999922v15.999937h-95.999625v-2.179991c0-0.307999-0.032-0.609998-0.044-0.909997 0.012-0.303999 0.044-0.605998 0.044-0.909996v-117.331542c0-11.045957-8.953965-19.999922-19.999922-19.999922h-13.999945c-11.043957 0-19.999922 8.953965-19.999922 19.999922v99.151613h-43.999828c-11.043957 0-19.999922 8.953965-19.999922 19.999922v46.847817H446.900254c-11.043957 0-19.999922 8.953965-19.999922 19.999922v98.957613a386.226491 386.226491 0 0 0 85.099668 9.459963z" fill="#1B9D7E" p-id="6151"></path></svg>